<mxfile host="app.diagrams.net" modified="2023-02-23T19:55:42.732Z" agent="5.0 (Windows NT 10.0; Win64; x64) AppleWebKit/537.36 (KHTML, like Gecko) Chrome/110.0.0.0 Safari/537.36" etag="3FtEQelQEfNXXwFzV-VQ" version="20.8.23" type="github">
  <diagram id="C5RBs43oDa-KdzZeNtuy" name="Page-1">
    <mxGraphModel dx="324" dy="896" grid="1" gridSize="10" guides="1" tooltips="1" connect="1" arrows="1" fold="1" page="1" pageScale="1" pageWidth="827" pageHeight="1169" math="0" shadow="0">
      <root>
        <mxCell id="WIyWlLk6GJQsqaUBKTNV-0" />
        <mxCell id="WIyWlLk6GJQsqaUBKTNV-1" parent="WIyWlLk6GJQsqaUBKTNV-0" />
        <mxCell id="oz4C0Av6Pg5DuHzhS2Jf-21" style="edgeStyle=orthogonalEdgeStyle;rounded=0;orthogonalLoop=1;jettySize=auto;html=1;entryX=0.5;entryY=0;entryDx=0;entryDy=0;" edge="1" parent="WIyWlLk6GJQsqaUBKTNV-1" source="oz4C0Av6Pg5DuHzhS2Jf-18" target="oz4C0Av6Pg5DuHzhS2Jf-19">
          <mxGeometry relative="1" as="geometry" />
        </mxCell>
        <mxCell id="oz4C0Av6Pg5DuHzhS2Jf-23" style="edgeStyle=orthogonalEdgeStyle;rounded=0;orthogonalLoop=1;jettySize=auto;html=1;exitX=0.5;exitY=1;exitDx=0;exitDy=0;" edge="1" parent="WIyWlLk6GJQsqaUBKTNV-1" source="oz4C0Av6Pg5DuHzhS2Jf-18">
          <mxGeometry relative="1" as="geometry">
            <mxPoint x="440" y="170" as="targetPoint" />
          </mxGeometry>
        </mxCell>
        <mxCell id="oz4C0Av6Pg5DuHzhS2Jf-18" value="has power?" style="rhombus;whiteSpace=wrap;html=1;" vertex="1" parent="WIyWlLk6GJQsqaUBKTNV-1">
          <mxGeometry x="400" y="40" width="80" height="80" as="geometry" />
        </mxCell>
        <mxCell id="oz4C0Av6Pg5DuHzhS2Jf-19" value="seek other help" style="rounded=0;whiteSpace=wrap;html=1;" vertex="1" parent="WIyWlLk6GJQsqaUBKTNV-1">
          <mxGeometry x="560" y="430" width="120" height="60" as="geometry" />
        </mxCell>
        <mxCell id="oz4C0Av6Pg5DuHzhS2Jf-29" style="edgeStyle=orthogonalEdgeStyle;rounded=0;orthogonalLoop=1;jettySize=auto;html=1;fontSize=11;" edge="1" parent="WIyWlLk6GJQsqaUBKTNV-1" source="oz4C0Av6Pg5DuHzhS2Jf-25" target="oz4C0Av6Pg5DuHzhS2Jf-28">
          <mxGeometry relative="1" as="geometry">
            <Array as="points">
              <mxPoint x="480" y="210" />
            </Array>
          </mxGeometry>
        </mxCell>
        <mxCell id="oz4C0Av6Pg5DuHzhS2Jf-34" style="edgeStyle=orthogonalEdgeStyle;rounded=0;orthogonalLoop=1;jettySize=auto;html=1;exitX=0;exitY=0.5;exitDx=0;exitDy=0;entryX=0.5;entryY=0;entryDx=0;entryDy=0;fontSize=11;" edge="1" parent="WIyWlLk6GJQsqaUBKTNV-1" source="oz4C0Av6Pg5DuHzhS2Jf-25" target="oz4C0Av6Pg5DuHzhS2Jf-33">
          <mxGeometry relative="1" as="geometry" />
        </mxCell>
        <mxCell id="oz4C0Av6Pg5DuHzhS2Jf-25" value="is plugged in?" style="rhombus;whiteSpace=wrap;html=1;" vertex="1" parent="WIyWlLk6GJQsqaUBKTNV-1">
          <mxGeometry x="400" y="170" width="80" height="80" as="geometry" />
        </mxCell>
        <mxCell id="oz4C0Av6Pg5DuHzhS2Jf-26" value="no" style="text;html=1;align=center;verticalAlign=middle;resizable=0;points=[];autosize=1;strokeColor=none;fillColor=none;fontSize=11;" vertex="1" parent="WIyWlLk6GJQsqaUBKTNV-1">
          <mxGeometry x="440" y="135" width="40" height="30" as="geometry" />
        </mxCell>
        <mxCell id="oz4C0Av6Pg5DuHzhS2Jf-27" value="yes" style="text;html=1;align=center;verticalAlign=middle;resizable=0;points=[];autosize=1;strokeColor=none;fillColor=none;fontSize=11;" vertex="1" parent="WIyWlLk6GJQsqaUBKTNV-1">
          <mxGeometry x="590" y="55" width="40" height="30" as="geometry" />
        </mxCell>
        <mxCell id="oz4C0Av6Pg5DuHzhS2Jf-38" style="edgeStyle=orthogonalEdgeStyle;rounded=0;orthogonalLoop=1;jettySize=auto;html=1;exitX=1;exitY=1;exitDx=0;exitDy=0;entryX=0.121;entryY=0.375;entryDx=0;entryDy=0;entryPerimeter=0;fontSize=11;" edge="1" parent="WIyWlLk6GJQsqaUBKTNV-1" source="oz4C0Av6Pg5DuHzhS2Jf-28" target="oz4C0Av6Pg5DuHzhS2Jf-36">
          <mxGeometry relative="1" as="geometry" />
        </mxCell>
        <mxCell id="oz4C0Av6Pg5DuHzhS2Jf-45" style="edgeStyle=orthogonalEdgeStyle;rounded=0;orthogonalLoop=1;jettySize=auto;html=1;exitX=0;exitY=1;exitDx=0;exitDy=0;fontSize=11;" edge="1" parent="WIyWlLk6GJQsqaUBKTNV-1" source="oz4C0Av6Pg5DuHzhS2Jf-28">
          <mxGeometry relative="1" as="geometry">
            <mxPoint x="440" y="370" as="targetPoint" />
          </mxGeometry>
        </mxCell>
        <mxCell id="oz4C0Av6Pg5DuHzhS2Jf-28" value="is switch on?" style="rhombus;whiteSpace=wrap;html=1;fontSize=11;" vertex="1" parent="WIyWlLk6GJQsqaUBKTNV-1">
          <mxGeometry x="450" y="250" width="80" height="80" as="geometry" />
        </mxCell>
        <mxCell id="oz4C0Av6Pg5DuHzhS2Jf-30" value="yes" style="text;html=1;align=center;verticalAlign=middle;resizable=0;points=[];autosize=1;strokeColor=none;fillColor=none;fontSize=11;" vertex="1" parent="WIyWlLk6GJQsqaUBKTNV-1">
          <mxGeometry x="460" y="225" width="40" height="30" as="geometry" />
        </mxCell>
        <mxCell id="oz4C0Av6Pg5DuHzhS2Jf-54" style="edgeStyle=orthogonalEdgeStyle;rounded=0;orthogonalLoop=1;jettySize=auto;html=1;fontSize=11;" edge="1" parent="WIyWlLk6GJQsqaUBKTNV-1" source="oz4C0Av6Pg5DuHzhS2Jf-33">
          <mxGeometry relative="1" as="geometry">
            <mxPoint x="290" y="300" as="targetPoint" />
          </mxGeometry>
        </mxCell>
        <mxCell id="oz4C0Av6Pg5DuHzhS2Jf-33" value="plug it in?" style="whiteSpace=wrap;html=1;aspect=fixed;fontSize=11;" vertex="1" parent="WIyWlLk6GJQsqaUBKTNV-1">
          <mxGeometry x="340" y="260" width="80" height="80" as="geometry" />
        </mxCell>
        <mxCell id="oz4C0Av6Pg5DuHzhS2Jf-35" value="no" style="text;html=1;align=center;verticalAlign=middle;resizable=0;points=[];autosize=1;strokeColor=none;fillColor=none;fontSize=11;" vertex="1" parent="WIyWlLk6GJQsqaUBKTNV-1">
          <mxGeometry x="350" y="215" width="40" height="30" as="geometry" />
        </mxCell>
        <mxCell id="oz4C0Av6Pg5DuHzhS2Jf-43" style="edgeStyle=orthogonalEdgeStyle;rounded=0;orthogonalLoop=1;jettySize=auto;html=1;exitX=1;exitY=0.5;exitDx=0;exitDy=0;fontSize=11;" edge="1" parent="WIyWlLk6GJQsqaUBKTNV-1" source="oz4C0Av6Pg5DuHzhS2Jf-36">
          <mxGeometry relative="1" as="geometry">
            <mxPoint x="580.2432432432432" y="379.91891891891885" as="targetPoint" />
          </mxGeometry>
        </mxCell>
        <mxCell id="oz4C0Av6Pg5DuHzhS2Jf-44" style="edgeStyle=orthogonalEdgeStyle;rounded=0;orthogonalLoop=1;jettySize=auto;html=1;exitX=1;exitY=1;exitDx=0;exitDy=0;fontSize=11;" edge="1" parent="WIyWlLk6GJQsqaUBKTNV-1" source="oz4C0Av6Pg5DuHzhS2Jf-36">
          <mxGeometry relative="1" as="geometry">
            <mxPoint x="579.9999999999999" y="430" as="targetPoint" />
          </mxGeometry>
        </mxCell>
        <mxCell id="oz4C0Av6Pg5DuHzhS2Jf-49" style="edgeStyle=orthogonalEdgeStyle;rounded=0;orthogonalLoop=1;jettySize=auto;html=1;exitX=0;exitY=1;exitDx=0;exitDy=0;fontSize=11;entryX=0.5;entryY=0;entryDx=0;entryDy=0;" edge="1" parent="WIyWlLk6GJQsqaUBKTNV-1" source="oz4C0Av6Pg5DuHzhS2Jf-36" target="oz4C0Av6Pg5DuHzhS2Jf-48">
          <mxGeometry relative="1" as="geometry">
            <mxPoint x="490" y="420" as="targetPoint" />
          </mxGeometry>
        </mxCell>
        <mxCell id="oz4C0Av6Pg5DuHzhS2Jf-36" value="fuse ok?" style="rhombus;whiteSpace=wrap;html=1;fontSize=11;" vertex="1" parent="WIyWlLk6GJQsqaUBKTNV-1">
          <mxGeometry x="500" y="340" width="80" height="80" as="geometry" />
        </mxCell>
        <mxCell id="oz4C0Av6Pg5DuHzhS2Jf-39" value="yes" style="text;html=1;align=center;verticalAlign=middle;resizable=0;points=[];autosize=1;strokeColor=none;fillColor=none;fontSize=11;" vertex="1" parent="WIyWlLk6GJQsqaUBKTNV-1">
          <mxGeometry x="500" y="310" width="40" height="30" as="geometry" />
        </mxCell>
        <mxCell id="oz4C0Av6Pg5DuHzhS2Jf-41" value="yes" style="text;html=1;align=center;verticalAlign=middle;resizable=0;points=[];autosize=1;strokeColor=none;fillColor=none;fontSize=11;" vertex="1" parent="WIyWlLk6GJQsqaUBKTNV-1">
          <mxGeometry x="570" y="390" width="40" height="30" as="geometry" />
        </mxCell>
        <mxCell id="oz4C0Av6Pg5DuHzhS2Jf-53" style="edgeStyle=orthogonalEdgeStyle;rounded=0;orthogonalLoop=1;jettySize=auto;html=1;fontSize=11;startArrow=none;" edge="1" parent="WIyWlLk6GJQsqaUBKTNV-1" source="oz4C0Av6Pg5DuHzhS2Jf-56">
          <mxGeometry relative="1" as="geometry">
            <mxPoint x="290" y="390" as="targetPoint" />
          </mxGeometry>
        </mxCell>
        <mxCell id="oz4C0Av6Pg5DuHzhS2Jf-46" value="turn switch on" style="whiteSpace=wrap;html=1;aspect=fixed;fontSize=11;" vertex="1" parent="WIyWlLk6GJQsqaUBKTNV-1">
          <mxGeometry x="400" y="350" width="80" height="80" as="geometry" />
        </mxCell>
        <mxCell id="oz4C0Av6Pg5DuHzhS2Jf-47" value="no" style="text;html=1;align=center;verticalAlign=middle;resizable=0;points=[];autosize=1;strokeColor=none;fillColor=none;fontSize=11;" vertex="1" parent="WIyWlLk6GJQsqaUBKTNV-1">
          <mxGeometry x="430" y="310" width="40" height="30" as="geometry" />
        </mxCell>
        <mxCell id="oz4C0Av6Pg5DuHzhS2Jf-52" style="edgeStyle=orthogonalEdgeStyle;rounded=0;orthogonalLoop=1;jettySize=auto;html=1;entryX=0.114;entryY=0.364;entryDx=0;entryDy=0;entryPerimeter=0;fontSize=11;" edge="1" parent="WIyWlLk6GJQsqaUBKTNV-1" source="oz4C0Av6Pg5DuHzhS2Jf-48" target="oz4C0Av6Pg5DuHzhS2Jf-18">
          <mxGeometry relative="1" as="geometry">
            <Array as="points">
              <mxPoint x="290" y="480" />
              <mxPoint x="290" y="69" />
            </Array>
          </mxGeometry>
        </mxCell>
        <mxCell id="oz4C0Av6Pg5DuHzhS2Jf-48" value="check fuse" style="whiteSpace=wrap;html=1;aspect=fixed;fontSize=11;" vertex="1" parent="WIyWlLk6GJQsqaUBKTNV-1">
          <mxGeometry x="450" y="440" width="80" height="80" as="geometry" />
        </mxCell>
        <mxCell id="oz4C0Av6Pg5DuHzhS2Jf-50" style="edgeStyle=orthogonalEdgeStyle;rounded=0;orthogonalLoop=1;jettySize=auto;html=1;fontSize=11;" edge="1" parent="WIyWlLk6GJQsqaUBKTNV-1" source="oz4C0Av6Pg5DuHzhS2Jf-48" target="oz4C0Av6Pg5DuHzhS2Jf-48">
          <mxGeometry relative="1" as="geometry" />
        </mxCell>
        <mxCell id="oz4C0Av6Pg5DuHzhS2Jf-51" value="no" style="text;html=1;align=center;verticalAlign=middle;resizable=0;points=[];autosize=1;strokeColor=none;fillColor=none;fontSize=11;" vertex="1" parent="WIyWlLk6GJQsqaUBKTNV-1">
          <mxGeometry x="490" y="400" width="40" height="30" as="geometry" />
        </mxCell>
        <mxCell id="oz4C0Av6Pg5DuHzhS2Jf-55" value="no" style="text;html=1;align=center;verticalAlign=middle;resizable=0;points=[];autosize=1;strokeColor=none;fillColor=none;fontSize=11;" vertex="1" parent="WIyWlLk6GJQsqaUBKTNV-1">
          <mxGeometry x="300" y="280" width="40" height="30" as="geometry" />
        </mxCell>
        <mxCell id="oz4C0Av6Pg5DuHzhS2Jf-57" value="" style="edgeStyle=orthogonalEdgeStyle;rounded=0;orthogonalLoop=1;jettySize=auto;html=1;fontSize=11;endArrow=none;" edge="1" parent="WIyWlLk6GJQsqaUBKTNV-1" source="oz4C0Av6Pg5DuHzhS2Jf-46" target="oz4C0Av6Pg5DuHzhS2Jf-56">
          <mxGeometry relative="1" as="geometry">
            <mxPoint x="290" y="390" as="targetPoint" />
            <mxPoint x="400" y="390" as="sourcePoint" />
            <Array as="points">
              <mxPoint x="400" y="390" />
              <mxPoint x="400" y="390" />
            </Array>
          </mxGeometry>
        </mxCell>
        <mxCell id="oz4C0Av6Pg5DuHzhS2Jf-56" value="no" style="text;html=1;align=center;verticalAlign=middle;resizable=0;points=[];autosize=1;strokeColor=none;fillColor=none;fontSize=11;" vertex="1" parent="WIyWlLk6GJQsqaUBKTNV-1">
          <mxGeometry x="350" y="375" width="40" height="30" as="geometry" />
        </mxCell>
      </root>
    </mxGraphModel>
  </diagram>
</mxfile>
